# xmcd
#
# Track frame offsets:
#  150
#  7695
#  22648
#  35596
#  58361
#  73041
#  88822
#  104050
#  122215
#  136444
#  153103
#  170101
#  184251
#  197763
#
# Disc length: 2856 seconds
#
# Revision: 0
# Processed by: cddbd v1.5.1PL2 Copyright (c) Steve Scherf et al.
# Submitted via: Collectorz.com_Music_Collector 6.11
#
DISCID=c20b260e
DTITLE=Ruud Hermans and Dick van Altena - Lonely 2
DYEAR=2006
DGENRE=Country
TTITLE0=Turn Out The Light And Love Me Tonight
TTITLE1=Some Thing Like Love
TTITLE2=One Love Ago
TTITLE3=Tell It To You
TTITLE4=Chameleon Blues
TTITLE5=World Of Oz
TTITLE6=Waiting For You
TTITLE7=Color Of Time
TTITLE8=Lonely 2
TTITLE9=Traveller
TTITLE10=Me And Jack
TTITLE11=Till I'm Too Old To Die Young
TTITLE12=Lieve An
TTITLE13=Grote Vriend
EXTD=
EXTT0=
EXTT1=
EXTT2=
EXTT3=
EXTT4=
EXTT5=
EXTT6=
EXTT7=
EXTT8=
EXTT9=
EXTT10=
EXTT11=
EXTT12=
EXTT13=
PLAYORDER=
